<svg width="29" height="29" viewBox="0 0 29 29" fill="none" xmlns="http://www.w3.org/2000/svg">
<path d="M3.33929 23.6893L4.01369 24.3637C4.66151 25.0115 5.71138 25.013 6.361 24.367C7.01319 23.7184 7.01466 22.6635 6.36428 22.0131L5.68333 21.3321M14.4048 6.54762C10.0702 6.54762 6.54762 10.0702 6.54762 14.4048C6.54762 18.7393 10.0702 22.2619 14.4048 22.2619C18.7393 22.2619 22.2619 18.7393 22.2619 14.4048C22.2619 10.0571 18.7393 6.54762 14.4048 6.54762ZM24.881 15.7143H27.5C28.2232 15.7143 28.8095 15.128 28.8095 14.4048C28.8095 13.6815 28.2232 13.0952 27.5 13.0952H24.881M21.2667 23.1917L22.698 24.6151C23.2097 25.1239 24.0367 25.1228 24.547 24.6125C25.0573 24.1022 25.0585 23.2752 24.5496 22.7635L23.1262 21.3321M25.4702 5.2381L24.7979 4.57053C24.1483 3.9255 23.0998 3.92591 22.4506 4.57144C21.7973 5.22115 21.7958 6.27795 22.4473 6.92948L23.1262 7.60833M15.7143 0H15.0595C13.9747 0 13.0952 0.87944 13.0952 1.96429C13.0952 3.04913 13.9747 3.92857 15.0595 3.92857H15.7143M6.61438 6.67728C7.12675 6.16492 7.12559 5.33386 6.6118 4.82293L6.10621 4.32015C5.59689 3.81366 4.77422 3.81334 4.26451 4.31944C3.75322 4.82709 3.74946 5.65285 4.2561 6.16515L4.75747 6.67213C5.26798 7.18834 6.10102 7.19065 6.61438 6.67728ZM0 15.7143H2.61905C3.34228 15.7143 3.92857 15.128 3.92857 14.4048C3.92857 13.6815 3.34228 13.0952 2.61905 13.0952H0M15.7143 24.881H15.0595C13.9747 24.881 13.0952 25.7604 13.0952 26.8452C13.0952 27.9301 13.9747 28.8095 15.0595 28.8095H15.7143" fill="white"/>
</svg>
